<?xml version="1.0" standalone="no"?>
<!DOCTYPE svg PUBLIC "-//W3C//DTD SVG 20010904//EN"
 "http://www.w3.org/TR/2001/REC-SVG-20010904/DTD/svg10.dtd">
<svg version="1.0" xmlns="http://www.w3.org/2000/svg"
 width="1059.000000pt" height="1280.000000pt" viewBox="0 0 1059.000000 1280.000000"
 preserveAspectRatio="xMidYMid meet">
<g transform="translate(0.000000,1280.000000) scale(0.100000,-0.100000)"
fill="#000000" stroke="none">
<path d="M8926 12774 c-6 -24 13 -53 36 -54 21 -1 87 -121 102 -187 14 -65 14
-79 1 -149 -38 -197 -67 -206 -186 -57 -105 132 -148 167 -280 232 -106 52
-136 62 -209 71 -113 13 -183 13 -198 -2 -26 -26 -10 -44 83 -93 102 -53 134
-84 179 -173 25 -49 26 -58 26 -215 0 -113 -4 -167 -12 -175 -17 -17 -81 -15
-169 6 -67 16 -89 28 -175 93 -174 130 -201 163 -213 263 -3 27 -10 51 -16 53
-17 5 -56 -65 -86 -156 -36 -106 -38 -203 -8 -335 40 -171 183 -356 361 -466
97 -59 114 -65 276 -106 l173 -44 192 0 c190 0 232 -6 205 -27 -7 -5 -76 -36
-153 -67 -276 -113 -692 -379 -911 -582 -128 -119 -217 -243 -356 -494 -70
-127 -103 -201 -176 -405 -50 -137 -122 -356 -162 -485 -110 -361 -266 -779
-379 -1013 -53 -111 -119 -252 -145 -313 -46 -107 -51 -114 -134 -190 -192
-177 -334 -262 -477 -288 -314 -56 -465 -60 -631 -15 -158 42 -193 67 -251
184 -25 50 -83 189 -129 310 -45 121 -95 247 -109 280 -15 33 -58 152 -95 265
-50 153 -118 321 -270 665 l-203 460 -159 229 c-310 444 -650 778 -1013 996
l-180 108 -235 55 c-222 53 -248 57 -475 73 l-240 18 -290 -43 -290 -43 -195
-82 -195 -82 -205 -156 c-183 -140 -224 -177 -376 -340 -153 -165 -177 -196
-242 -309 -110 -196 -236 -509 -285 -709 l-40 -165 -4 -300 c-3 -192 0 -320 7
-355 6 -30 17 -117 25 -192 l14 -137 73 -161 c61 -135 86 -176 152 -258 62
-77 95 -108 159 -149 86 -54 156 -75 183 -52 27 22 15 70 -50 193 -55 103 -72
148 -114 306 -48 177 -50 194 -62 391 l-12 206 32 189 c42 253 116 508 168
583 54 77 65 78 58 5 -4 -33 -9 -198 -12 -369 l-5 -310 49 -240 48 -240 118
-175 c64 -96 125 -186 136 -200 16 -21 21 -55 30 -235 11 -196 15 -221 56
-382 32 -123 67 -226 125 -365 80 -190 82 -194 153 -266 65 -65 75 -73 100
-66 47 11 50 38 21 154 -15 58 -42 182 -62 275 -32 158 -35 190 -44 448 -9
268 -8 284 16 471 25 194 45 271 68 263 7 -2 41 -52 77 -112 l64 -108 -47
-137 -48 -137 66 -174 c36 -96 76 -199 87 -230 l22 -56 -23 -76 -22 -76 30
-145 c17 -80 42 -169 55 -198 19 -41 31 -99 51 -249 25 -193 26 -200 89 -357
50 -127 74 -175 116 -226 38 -49 58 -66 76 -66 14 0 27 7 31 17 4 9 -3 110
-15 223 -27 250 -27 254 -5 248 22 -6 223 -147 223 -156 0 -4 14 -112 30 -240
29 -224 32 -237 81 -360 53 -133 71 -162 99 -162 41 0 51 165 25 395 -17 155
-19 212 -5 220 14 8 131 -63 187 -113 l43 -37 36 -235 c53 -349 151 -670 204
-670 5 0 14 9 20 20 6 11 15 18 20 15 4 -3 23 -49 40 -103 18 -53 35 -100 39
-104 4 -4 50 20 103 53 54 33 101 58 106 55 5 -3 12 -31 15 -63 10 -116 101
-227 170 -209 27 6 27 7 27 94 0 105 9 162 24 162 6 0 38 -34 71 -75 33 -41
68 -74 77 -75 10 0 51 13 93 30 110 44 107 45 119 -58 2 -24 7 -46 9 -49 3 -3
35 12 71 32 37 20 72 35 80 32 7 -3 19 -46 30 -108 9 -57 19 -106 22 -109 3
-3 34 26 68 65 l63 69 16 -24 c8 -14 29 -60 47 -103 18 -42 36 -77 40 -77 5 0
48 34 95 76 48 41 92 73 98 71 8 -2 15 -46 19 -117 4 -62 9 -114 10 -116 2 -1
48 31 103 72 54 41 104 73 109 71 12 -3 24 -26 150 -286 l89 -184 61 67 c34
37 66 66 72 66 6 0 30 -67 54 -149 23 -81 45 -152 48 -158 14 -21 306 -174
502 -263 113 -51 210 -99 216 -106 6 -8 28 -117 49 -243 l38 -230 -19 -58
c-23 -71 -23 -175 1 -463 25 -314 34 -516 23 -560 -13 -49 -59 -91 -131 -120
-74 -29 -107 -55 -107 -86 0 -34 88 -84 150 -84 62 0 69 -10 63 -83 -12 -129
-51 -170 -253 -272 -52 -26 -132 -77 -178 -113 -68 -54 -84 -72 -93 -106 -11
-37 -28 -166 -23 -166 1 0 25 12 53 26 29 16 76 29 113 33 87 10 206 80 313
183 44 43 85 76 92 73 8 -2 13 -23 13 -50 0 -49 33 -127 67 -157 28 -26 81
-45 240 -88 131 -36 193 -60 193 -76 0 -12 -24 -50 -45 -74 -13 -14 -26 -35
-30 -47 -7 -26 2 -29 55 -12 19 6 72 14 116 19 56 6 96 16 130 34 87 46 190
26 217 -42 36 -89 201 -194 458 -292 143 -55 186 -79 246 -141 44 -46 67 -96
78 -173 9 -60 21 -66 34 -19 34 131 52 240 49 301 l-3 67 30 0 c17 0 142 -9
279 -19 270 -21 321 -18 447 25 58 20 75 20 143 3 14 -3 26 -2 26 3 0 20 -105
125 -144 145 -22 11 -51 29 -62 40 -27 24 -113 47 -212 56 l-76 7 -15 50 c-12
38 -34 69 -93 130 l-77 80 -78 -1 c-55 -1 -94 -7 -131 -22 -71 -29 -78 -28
-101 17 -13 24 -39 51 -73 72 -29 18 -74 50 -100 70 -51 40 -119 60 -327 95
-85 15 -105 21 -111 38 -27 66 -112 954 -108 1126 3 142 -3 132 113 167 l60
18 65 158 c60 146 74 171 186 325 72 98 198 252 307 372 l186 205 112 275 c61
151 116 280 123 286 6 6 74 32 150 58 l140 46 250 190 c224 169 273 212 463
402 l212 213 153 250 c122 199 179 303 275 510 l121 260 65 380 66 380 -4 385
c-3 212 -8 414 -11 450 -8 86 -77 287 -149 430 -87 173 -220 485 -243 570 -28
104 -44 247 -40 365 l3 100 47 -3 c60 -5 156 37 199 86 17 20 45 65 61 101 29
63 31 74 35 231 5 138 2 188 -17 305 -12 77 -34 183 -50 236 -29 98 -94 239
-135 294 -52 70 -80 147 -64 176 14 28 106 25 340 -10 347 -53 339 -51 379
-87 32 -30 54 -38 89 -35 17 1 12 23 -47 185 l-47 129 -87 82 c-48 45 -108 93
-133 106 -47 25 -56 47 -28 70 9 8 31 44 49 82 42 87 60 206 45 297 -6 36 -14
117 -17 180 -6 106 -5 119 15 157 27 55 30 218 4 299 -29 94 -83 136 -83 64 0
-62 -51 -134 -132 -186 -77 -50 -91 -27 -82 133 7 139 -3 206 -48 317 -28 68
-38 81 -67 93 -52 22 -57 8 -37 -96 14 -73 15 -98 5 -137 -30 -131 -59 -169
-105 -139 -24 15 -24 18 -24 155 0 228 -41 340 -144 396 -24 13 -31 14 -42 2
-12 -11 -12 -33 -2 -127 13 -128 3 -177 -52 -264 -24 -38 -35 -47 -59 -47 -16
0 -33 6 -39 13 -12 15 -55 117 -96 228 -34 93 -69 153 -151 256 -48 60 -61 70
-127 95 -90 35 -104 35 -112 2z m-6491 -2858 c73 -21 110 -36 110 -46 0 -17
-139 -72 -169 -68 -23 3 -86 99 -86 130 0 24 15 22 145 -16z m-655 -32 c0 -16
-97 -113 -113 -114 -5 0 -22 -29 -38 -65 -33 -74 -41 -165 -26 -310 l9 -80
-172 -224 -173 -223 -74 -187 c-41 -102 -79 -190 -84 -196 -15 -15 -26 9 -33
73 -3 32 -14 129 -25 217 l-19 160 31 185 32 185 97 140 c62 90 131 174 191
234 84 83 109 100 218 157 125 64 179 78 179 48z m4783 -7017 l6 -168 91 -105
91 -104 45 -248 c24 -136 62 -335 85 -443 31 -151 38 -201 30 -222 -15 -38
-78 -104 -107 -111 -34 -9 -50 -52 -28 -77 13 -14 31 -19 74 -19 79 0 91 -12
93 -90 l2 -65 -120 -3 c-183 -5 -326 13 -407 50 -36 16 -81 45 -99 64 -43 44
-45 78 -25 390 9 137 21 398 26 579 9 293 13 344 36 455 l26 125 71 85 c80 96
89 104 98 87 3 -7 9 -88 12 -180z m388 -1884 c5 -5 3 -19 -4 -32 -14 -29 -92
-59 -152 -60 -37 -1 -42 2 -68 45 -15 25 -25 49 -23 53 7 10 237 4 247 -6z
m420 -23 c89 -9 110 -15 144 -40 50 -35 105 -47 145 -30 34 14 80 6 80 -13 0
-21 -93 -45 -240 -62 -133 -16 -136 -16 -182 5 -49 21 -82 58 -93 103 -13 51
-9 52 146 37z m841 -237 c36 -33 22 -40 -106 -53 -121 -11 -251 -6 -261 10
-11 17 23 24 145 31 69 4 136 12 150 18 36 14 51 13 72 -6z"/>
</g>
</svg>
